<?xml version="1.0" encoding="UTF-8" standalone="no"?>
<svg
   xmlns:dc="http://purl.org/dc/elements/1.1/"
   xmlns:cc="http://creativecommons.org/ns#"
   xmlns:rdf="http://www.w3.org/1999/02/22-rdf-syntax-ns#"
   xmlns:svg="http://www.w3.org/2000/svg"
   xmlns="http://www.w3.org/2000/svg"
   xmlns:sodipodi="http://sodipodi.sourceforge.net/DTD/sodipodi-0.dtd"
   xmlns:inkscape="http://www.inkscape.org/namespaces/inkscape"
   height="16"
   width="16"
   version="1.1"
   id="svg4"
   sodipodi:docname="com.leinardi.gst-symbolic.svg"
   inkscape:version="0.92.4 (5da689c313, 2019-01-14)">
  <metadata
     id="metadata10">
    <rdf:RDF>
      <cc:Work
         rdf:about="">
        <dc:format>image/svg+xml</dc:format>
        <dc:type
           rdf:resource="http://purl.org/dc/dcmitype/StillImage" />
        <dc:title />
      </cc:Work>
    </rdf:RDF>
  </metadata>
  <defs
     id="defs8" />
  <sodipodi:namedview
     pagecolor="#ffffff"
     bordercolor="#666666"
     borderopacity="1"
     objecttolerance="10"
     gridtolerance="10"
     guidetolerance="10"
     inkscape:pageopacity="0"
     inkscape:pageshadow="2"
     inkscape:window-width="1685"
     inkscape:window-height="1376"
     id="namedview6"
     showgrid="false"
     inkscape:zoom="31.999999"
     inkscape:cx="6.4753856"
     inkscape:cy="5.1288479"
     inkscape:window-x="1755"
     inkscape:window-y="27"
     inkscape:window-maximized="0"
     inkscape:current-layer="svg4" />
  <path
     style="stroke-width:0.8888889;fill:#808080;fill-opacity:1"
     d="M 5.3339844 0 L 5.3339844 1.7773438 L 3.5546875 1.7773438 A 1.7777778 1.7777778 0 0 0 1.7773438 3.5546875 L 1.7773438 5.3339844 L 0 5.3339844 L 0 7.1113281 L 1.7773438 7.1113281 L 1.7773438 8.8886719 L 0 8.8886719 L 0 10.666016 L 1.7773438 10.666016 L 1.7773438 12.445312 A 1.7777778 1.7777778 0 0 0 3.5546875 14.222656 L 5.3339844 14.222656 L 5.3339844 16 L 7.1113281 16 L 7.1113281 14.222656 L 8.8886719 14.222656 L 8.8886719 16 L 10.666016 16 L 10.666016 14.222656 L 12.445312 14.222656 A 1.7777778 1.7777778 0 0 0 14.222656 12.445312 L 14.222656 10.666016 L 16 10.666016 L 16 8.8886719 L 14.222656 8.8886719 L 14.222656 7.1113281 L 16 7.1113281 L 16 5.3339844 L 14.222656 5.3339844 L 14.222656 3.5546875 A 1.7777778 1.7777778 0 0 0 12.445312 1.7773438 L 10.666016 1.7773438 L 10.666016 0 L 8.8886719 0 L 8.8886719 1.7773438 L 7.1113281 1.7773438 L 7.1113281 0 L 5.3339844 0 z "
     id="path1055" />
</svg>
